<svg xmlns="http://www.w3.org/2000/svg" viewBox="0 0 44 44" width="44" height="44">
  <defs><clipPath id="fc"><circle cx="22" cy="22" r="19"/></clipPath></defs>
  <circle cx="22" cy="22" r="22" fill="#1A4731"/>
  <circle cx="22" cy="22" r="20" fill="white"/>
  <circle cx="22" cy="22" r="19" fill="#EEF7EE"/>
  <g clip-path="url(#fc)">
    <rect x="3" y="3" width="38" height="27" fill="#F1F8E9"/>
    <path d="M3,30 Q11,27 22,28.5 Q33,30 41,27 L41,44 L3,44Z" fill="#1B5E20"/>
    <path d="M3,31 Q11,28 22,29.5 Q33,31 41,28" stroke="#29B6F6" stroke-width="1.8" fill="none" opacity="0.65" stroke-linecap="round"/>
    <rect x="10.5" y="24" width="2" height="7" fill="#1B5E20"/>
    <polygon points="11.5,16 15,24.5 8,24.5" fill="#1B5E20"/>
    <polygon points="11.5,19.5 14,24.5 9,24.5" fill="#2E7D32"/>
    <rect x="20.5" y="20" width="3" height="10" fill="#1B5E20"/>
    <polygon points="22,7 29,20.5 15,20.5" fill="#1B5E20"/>
    <polygon points="22,11 28,20.5 16,20.5" fill="#2E7D32"/>
    <polygon points="22,15.5 26,20.5 18,20.5" fill="#388E3C"/>
    <polygon points="22,19.5 25,20.5 19,20.5" fill="#43A047"/>
    <rect x="31.5" y="24" width="2" height="7" fill="#1B5E20"/>
    <polygon points="32.5,16 36,24.5 29,24.5" fill="#1B5E20"/>
    <polygon points="32.5,19.5 35.5,24.5 29.5,24.5" fill="#2E7D32"/>
    <g transform="translate(24,9)">
      <polygon points="0,-3.5 3,-1.75 3,1.75 0,3.5 -3,1.75 -3,-1.75" fill="#F9A825" stroke="#E65100" stroke-width="0.5"/>
      <polygon points="6,-3.5 9,-1.75 9,1.75 6,3.5 3,1.75 3,-1.75" fill="#FDD835" stroke="#E65100" stroke-width="0.5"/>
      <polygon points="3,1.75 6,3.5 6,7 3,8.75 0,7 0,3.5" fill="#FDD835" stroke="#E65100" stroke-width="0.5"/>
    </g>
  </g>
  <circle cx="22" cy="22" r="21.5" fill="none" stroke="#1A4731" stroke-width="1.5"/>
</svg>